<?xml version="1.0" encoding="utf-8"?>
<!-- Generator: Adobe Illustrator 24.1.0, SVG Export Plug-In . SVG Version: 6.00 Build 0)  -->
<svg version="1.1" id="Layer_1" xmlns="http://www.w3.org/2000/svg" xmlns:xlink="http://www.w3.org/1999/xlink" x="0px" y="0px"
	 viewBox="0 0 157.657761 55" style="enable-background:new 0 0 157.657761 55;" xml:space="preserve">
<style type="text/css">
	.st0{fill:#CA476A;}
</style>
<desc>Created with Sketch.</desc>
<g id="Page-1">
	<g id="Grow_logo">
		<g id="LOGO-Copy">
			<g>
				<g id="Grow_Logo_web" transform="translate(0.000000, 11.000000)">
					<path id="Path" class="st0" d="M13.126126,11.669569L13.126126,11.669569c0.279279-0.617012,0.972973-0.9747,1.621621-0.786914
						c0.495496,0.143075,1.009009,0.196729,1.558559,0.196729c2.18018,0,3.99099-1.609596,3.99099-3.70207
						c0-2.986694-3.315315-4.632059-6.585585-4.632059c-6.135135,0-10.765766,5.347435-10.765766,11.50861
						c0,6.089638,3.315315,10.319296,9.153153,10.319296c2.108108,0,4.333333-0.634895,5.909909-2.056705v-3.424862
						c0-0.795855,0.648649-1.439693,1.450451-1.439693l0,0c0.801802,0,1.450451,0.643839,1.450451,1.439693v8.056921
						c0,2.387568-0.864864,4.22966-2.585587,5.570992c-0.639639,0.500763-1.585585,0.304031-2.027027-0.375572l0,0
						c-0.369369-0.572302-0.306306-1.359217,0.225225-1.779499C17.522522,29.768578,18,28.534555,18,27.139572v-1.681133
						c-1.729731,1.234024-3.837838,1.833151-5.990991,1.833151C4.36937,27.29159,0,21.497046,0,14.244922
						C0,6.357903,5.990991,0,13.702703,0C18.747747,0,23,2.763139,23,7.359429c0,3.666301-3.054054,6.465209-6.702703,6.465209
						c-0.729729,0-1.576576-0.125191-2.351351-0.36663C13.189189,13.243396,12.792793,12.393887,13.126126,11.669569z"/>
					<path id="Path_1_" class="st0" d="M37,14.439926c0,1.330869-1.100658,2.449167-2.483536,2.449167
						c-0.931328,0-1.768581-0.582254-2.154282-1.451015c-1.345249,0.665434-2.15428,2.033272-2.276575,3.687614v6.358597
						C30.085608,26.316082,29.39887,27,28.542803,27l0,0C27.696142,27,27,26.325323,27,25.484289V13.81146
						c0-0.794825,0.658514-1.441774,1.467545-1.441774h0.141109c0.809032,0,1.467545,0.64695,1.467545,1.441774v1.007394
						C30.922859,13.247689,32.522106,12,34.375351,12C35.824081,12,37,13.072088,37,14.439926z"/>
					<path id="Shape" class="st0" d="M54,19.5c0,4.073742-3.365501,7.5-7.5,7.5S39,23.573742,39,19.5
						c0-4.109713,3.365501-7.5,7.5-7.5C50.634499,12.008993,54,15.390287,54,19.5z M51.4035,19.5
						c0-2.023382-1.764175-4.919065-4.948734-4.919065c-2.72316,0-4.785889,2.257194-4.785889,4.919065
						s2.107964,4.919065,4.822075,4.919065C49.205067,24.419065,51.4035,22.161871,51.4035,19.5z"/>
					<path id="Path_2_" class="st0" d="M80,19.56295C80,23.879496,76.988205,27,72.927254,27
						c-2.107353,0-4.09713-1.088129-4.820686-3.102518C67.337791,25.956835,65.429413,27,63.285881,27
						C59.559574,27,57,24.697842,57,20.956835v-7.11331c0-0.809352,0.660244-1.47482,1.483288-1.47482l0,0
						c0.813999,0,1.483288,0.656475,1.483288,1.47482v6.915468c0,2.140287,1.094376,3.669064,3.32835,3.669064
						c2.270153,0,3.364529-1.528776,3.364529-3.669064v-6.951439c0-0.80036,0.651199-1.447842,1.456154-1.447842l0,0
						c0.804955,0,1.456154,0.647482,1.456154,1.447842v6.897482c0,2.176258,1.257179,3.705036,3.527336,3.705036
						c2.315376,0,4.051903-1.780577,4.051903-4.334532c0-1.834534-0.470306-3.327339-0.66024-3.866907
						c0.045219,0.170862,0.687378,0.485611,0.642151,0.674459c-0.045219,0.179857-0.777817,0.233814-0.777817,0.233814
						c-1.429024,0.080935-2.650024-1.025181-2.631935-2.571943C73.741249,13.160072,74.94416,12,76.327957,12
						C78.561935,12,80,13.708633,80,19.56295z"/>
				</g>
			</g>
		</g>
		<g id="webMD-Hibiscus" transform="translate(80.000000, 25.000000)">
			<g id="Group-10" transform="translate(18.584071, 0.000000)">
				<path id="Shape_1_" class="st0" d="M54.223778,1.225448c-1.625385-1.266764-4.710037-1.202216-4.710037-1.202216
					c-0.537453,0-1.749161,0-2.280098,0H44.18808c-0.620514,0-0.833866,0.041957-0.794777,0.301764
					c0.021172,0.142007,0.237782,0.182349,0.33387,0.208169c0.382732,0.106505,0.66449,0.309833,0.680775,0.687441
					c0.019543,0.435702,0.068401,1.802516,0.068401,2.276948v3.879364c0,0.524457,0,1.384565,0,1.907407l-0.008141,2.420568
					c0.000889,0.525984,0.430054,0.952658,0.960899,0.955317h3.162823c0,0,2.280098,0,3.92503-0.751989
					c2.473907-1.113461,3.898968-3.253243,3.898968-5.875526C56.415928,4.075264,55.591835,2.279202,54.223778,1.225448z
					 M48.872055,11.543523h-0.120518c-0.737774,0-1.499981,0-1.895741-0.387291
					c-0.203579-0.203327-0.304558-0.501864-0.304558-0.913361v-5.80775c0-1.197374-0.029312-1.76056,0.011402-3.103168
					c0.728302-0.102263,1.463093-0.152418,2.198669-0.150154c1.395744,0,2.855007,0.185655,4.071606,1.525036
					c0.833866,0.929498,1.239399,2.097826,1.239399,3.550166C54.075569,9.466676,52.031624,11.543523,48.872055,11.543523z
					 M43.401447,12.18094c-0.382732-0.132325-0.674259-0.577709-0.680775-0.806856S42.478004,1.010824,42.478004,1.010824
					c-0.011398-0.524456,0.01466-0.906906-0.128662-0.958545C42.178337-0.01227,41.45359,0.003868,41.26141,0.003868
					c-0.462536,0-0.80455-0.01291-0.88924,0.083913c-0.183632,0.301962-0.332237,0.623517-0.442989,0.958545l-0.939728,2.059097
					l-0.89901,1.728286l-1.423435,2.727174c-0.244293,0.466363-0.651455,0.471204-0.903896,0.009682l-1.48695-2.694899
					l-0.92181-1.676647L32.312019,1.02212c-0.210094-0.484114-0.3127-0.856881-0.415304-0.945635
					C31.794109-0.01227,31.437437-0.000974,30.9065,0.002254h-1.24754c-0.618885,0-0.899012,0-0.858295,0.266263
					c0.021172,0.142007,0.237782,0.182349,0.325729,0.208169c0.384359,0.106505,0.524422,0.56964,0.524422,0.806856
					s0,9.461194-0.052116,9.864622c0,0.067776-0.032572,0.201714-0.034201,0.209783
					c-0.003273,0.007874-0.005993,0.015962-0.008144,0.024205c-0.044659,0.381353-0.315378,0.69917-0.687286,0.806856
					c-0.09609,0.02582-0.311071,0.067776-0.325729,0.209783c-0.039087,0.258194,0.247555,0.267877,0.866438,0.267877h2.05209
					c0.618883,0,0.907156-0.008069,0.866438-0.267877c-0.021172-0.142007-0.237782-0.182349-0.325729-0.209783
					c-0.384357-0.106504-0.540709-0.345334-0.680771-0.806856c-0.047024-0.230762-0.080198-0.464084-0.099348-0.698737
					c-0.021172-0.526071-0.032572-1.384565-0.027687-1.909021V8.613022c0-0.524456,0.019545-1.384565,0.032574-1.907408
					l0.048859-2.068779c0.013029-0.524457,0.22801-0.576095,0.478821-0.114573l1.371317,2.515777
					c0.252441,0.463135,1.574898,2.936956,1.81105,3.404932c0.201954,0.398587,0.242668,0.547049,0.863182,0.555117
					c0.695431,0.008069,0.695431-0.182349,0.977184-0.787491c0.210094-0.445385,3.169338-6.20311,3.169338-6.20311
					c0.241039-0.467976,0.449505-0.421179,0.464165,0.104891c0,0,0.037457,7.021262-0.013031,7.335935
					c0,0.048411-0.014656,0.080686-0.017914,0.104892c-0.085091,0.302204-0.321526,0.539522-0.625401,0.627734
					c-0.096088,0.025819-0.311069,0.067776-0.325726,0.209783c-0.039089,0.258194,0.247551,0.267876,0.866436,0.267876h2.57814
					c0.622143,0,0.907154-0.008068,0.868069-0.267876C43.712517,12.243875,43.495907,12.208372,43.401447,12.18094z"/>
				<path id="Shape_2_" class="st0" d="M15.368814,1.335259c0.086362-0.231712,0.28027-0.678465,0.552391-0.821826
					c0.140135-0.075015,0.413885-0.071681,0.459511-0.266718C16.42634,0.051677,16.258505,0,15.583905,0h-2.023803
					c-0.619199,0-0.905985,0.008335-0.866878,0.27672c0.021183,0.145028,0.237903,0.18837,0.325893,0.215042
					c0.58661,0.166699,0.977682,0.473425,0.796811,1.100213s-2.732621,8.311609-2.732621,8.311609
					c-0.099398,0.27672-0.347077,0.355068-0.426922-0.056678L9.308815,3.383989
					C9.19801,2.853886,9.072541,2.173754,9.028546,1.873696C8.958162,1.613809,8.721573,1.438159,8.458231,1.450281
					c-0.237403-0.007723-0.45677,0.129022-0.558908,0.348401C7.728229,2.162085,7.390928,2.853886,7.151396,3.337313
					L3.776763,9.95026c-0.138505,0.245048-0.314488,0.166698-0.335671-0.121691L3.023948,3.125605
					c0-0.528435-0.050514-1.555301-0.047255-1.732002C2.978992,0.969312,3.263111,0.601004,3.66596,0.500097
					c0.096139-0.026672,0.325894-0.081683,0.347077-0.228378c0.039107-0.268385-0.262344-0.265051-0.881543-0.265051H0.890972
					c-0.115692,0-0.218349,0-0.30634,0C0.165857,0.018337-0.02642,0.061679,0.00291,0.283388
					c0.021183,0.145028,0.237903,0.18837,0.325894,0.215042c0.264392,0.074816,0.480613,0.269595,0.586609,0.528436
					c0.03334,0.090123,0.062164,0.181926,0.086362,0.275053c0,0.015003,0,0.03334,0.009777,0.05001s0,0.026672,0.008147,0.041675
					c0.002807,0.01744,0.006616,0.034695,0.011406,0.051677c0.123182,0.595779,0.210792,1.198677,0.262345,1.80535
					l0.544243,8.184918c0.034219,0.541771,0.017924,1.333591,0.177612,1.666989
					c0.159688,0.333398,0.905986,0.320062,1.20092-0.135026c0.081474-0.130026,4.282248-8.201588,4.282248-8.201588
					c0.244421-0.48176,0.532837-0.440085,0.638753,0.091684l1.324759,6.656289
					c0.082062,0.495429,0.197486,0.984467,0.345448,1.463617c0.180871,0.481759,1.081968,0.396743,1.3215-0.071681
					c0.236823-0.481808,0.443635-0.97845,0.619199-1.486955C11.748132,11.418878,15.212385,1.758674,15.368814,1.335259z
					 M26.470396,4.492537c-1.644136,0-3.144878,1.530296-4.132338,2.687187c0.052259-0.333145,0.132399-0.66108,0.239532-0.98019
					l1.541479-5.247683c0.084984-0.224856,0.050316-0.478677-0.09166-0.671091
					c-0.141973-0.192414-0.371084-0.296081-0.605753-0.274092h-1.295429c-0.620829,0-0.905987,0.008335-0.868507,0.27672
					c0.021183,0.146695,0.237902,0.18837,0.325893,0.215042c0.614311,0.175034,0.814735,0.88017,0.651789,1.638651
					c0-0.061679-1.533333,6.204535-1.533333,6.204535c-0.19239,0.617366-0.523943,1.179821-0.967905,1.641985
					c0,0-1.846189,2.312115-3.720079,2.312115c-0.858731,0-1.499113-0.500097-1.499113-1.436945
					c-0.006384-0.468708,0.041752-0.936528,0.143393-1.393603c1.955364-0.186703,5.452208-1.108548,5.452208-3.647373
					c0-1.026865-0.969534-1.333592-1.792418-1.333592c-2.651148,0-5.266447,3.303973-5.266447,6.291219
					c0,1.250241,0.567056,2.520488,2.250299,2.520488c3.162801,0,4.888412-3.152277,4.978032-3.257298
					c-0.081207,0.415668-0.132402,0.836887-0.153172,1.260244c0,1.363597,0.977682,2.000387,2.176973,2.000387
					c0.881542,0,1.807081-0.321729,2.677219-0.855165c0.689966-0.43088,1.311001-0.967822,1.841301-1.591975
					c1.024937-1.183562,1.717463-2.637177,1.717463-4.000775C28.538193,5.444387,27.935289,4.492537,26.470396,4.492537z
					 M17.897753,5.084318c0.475805,0,0.751186,0.318395,0.751186,0.801822c0,2.035394-2.212822,2.930568-3.896064,3.043922
					C15.04455,7.703158,16.489891,5.084318,17.897753,5.084318z M26.237381,9.520177
					c-0.404758,0.822748-0.932539,1.575841-1.564291,2.232099c-0.642012,0.643458-1.358978,1.061872-2.077574,1.061872
					c-0.840807,0-1.116188-0.820159-1.116188-1.586974c0-2.08707,2.230745-5.976157,4.498968-5.976157
					c0.840807,0,1.096632,0.596782,1.096632,1.308587C27.074928,7.373095,26.752295,8.469974,26.237381,9.520177z"/>
				<g>
					<path class="st0" d="M55.409584,0.601807c0.048828-0.110352,0.115234-0.206543,0.199219-0.288086
						c0.083008-0.081055,0.180664-0.14502,0.291992-0.191406c0.112305-0.046387,0.230469-0.069336,0.355469-0.069336
						s0.243164,0.022949,0.353516,0.069336c0.111328,0.046387,0.208008,0.110352,0.291016,0.191406
						c0.083008,0.081543,0.148438,0.177734,0.197266,0.288086c0.048828,0.11084,0.073242,0.230469,0.073242,0.358887
						c0,0.131836-0.024414,0.253418-0.073242,0.364746s-0.114258,0.208008-0.197266,0.290527
						c-0.083008,0.082031-0.179688,0.145996-0.291016,0.191406c-0.110352,0.04541-0.228516,0.068359-0.353516,0.068359
						S56.0131,1.852783,55.900795,1.807373c-0.111328-0.04541-0.208984-0.109375-0.291992-0.191406
						c-0.083984-0.08252-0.150391-0.179199-0.199219-0.290527s-0.073242-0.23291-0.073242-0.364746
						C55.336342,0.832275,55.360756,0.712646,55.409584,0.601807z M55.559975,1.271729
						c0.038086,0.095215,0.09082,0.177734,0.158203,0.247559c0.067383,0.070312,0.147461,0.125,0.239258,0.165039
						c0.091797,0.039551,0.191406,0.05957,0.298828,0.05957c0.105469,0,0.204102-0.02002,0.294922-0.05957
						c0.091797-0.040039,0.170898-0.094727,0.238281-0.165039c0.067383-0.069824,0.120117-0.152344,0.15918-0.247559
						c0.038086-0.095215,0.056641-0.19873,0.056641-0.311035c0-0.108887-0.018555-0.210938-0.056641-0.305176
						c-0.039062-0.094238-0.091797-0.17627-0.15918-0.245117c-0.067383-0.069336-0.146484-0.123535-0.238281-0.163574
						c-0.09082-0.040039-0.189453-0.060059-0.294922-0.060059c-0.107422,0-0.207031,0.02002-0.298828,0.060059
						S55.785561,0.341064,55.718178,0.4104c-0.067383,0.068848-0.120117,0.150879-0.158203,0.245117
						c-0.039062,0.094238-0.057617,0.196289-0.057617,0.305176C55.502357,1.072998,55.520912,1.176514,55.559975,1.271729z
						 M56.312904,0.430908c0.125977,0,0.220703,0.025391,0.28125,0.075684c0.061523,0.050293,0.091797,0.126953,0.091797,0.229492
						c0,0.096191-0.027344,0.166504-0.081055,0.210938c-0.053711,0.044922-0.120117,0.071289-0.200195,0.07959l0.305664,0.470703
						h-0.178711l-0.290039-0.458496h-0.175781v0.458496h-0.166016V0.430908H56.312904z M56.239662,0.904541
						c0.037109,0,0.072266-0.001465,0.105469-0.003906s0.063477-0.009277,0.088867-0.020508
						c0.026367-0.01123,0.046875-0.028809,0.0625-0.052734c0.015625-0.023438,0.023438-0.056152,0.023438-0.098633
						c0-0.035645-0.006836-0.064453-0.020508-0.085449s-0.032227-0.037598-0.053711-0.048828
						c-0.022461-0.01123-0.047852-0.019043-0.076172-0.022949c-0.02832-0.004395-0.056641-0.006348-0.083984-0.006348h-0.219727
						v0.339355H56.239662z"/>
				</g>
			</g>
			<g id="by" transform="translate(5.309735, 5.333333)">
				<g id="Group-10_1_">
					<path id="Shape_4_" class="st0" d="M2.579796,7.809477c-0.248741,0-0.490375-0.057107-0.739115-0.178462
						C1.59194,7.509662,1.357413,7.338338,1.129993,7.117046H1.094459L0.987855,7.680984H0V0h1.243703v1.977354L1.208169,2.869662
						c0.220313-0.192739,0.469054-0.356923,0.732008-0.478277s0.533016-0.1856,0.810184-0.1856
						c0.334023,0,0.625405,0.064246,0.88836,0.192739s0.483268,0.306954,0.66094,0.542523s0.319809,0.521108,0.412199,0.856615
						C4.804248,4.133169,4.853996,4.504369,4.853996,4.9184c0,0.456862-0.063962,0.863754-0.191885,1.220677
						C4.534186,6.496,4.370728,6.802954,4.157522,7.045661C3.951422,7.295508,3.709789,7.481108,3.432621,7.6096
						C3.162559,7.745231,2.878284,7.809477,2.579796,7.809477z M2.316841,6.7744c0.355344,0,0.646726-0.157046,0.88836-0.464
						s0.355344-0.763815,0.355344-1.377723c0-0.535385-0.092389-0.956554-0.270061-1.249231
						C3.112811,3.383631,2.814322,3.240862,2.416337,3.240862c-0.376664,0-0.767542,0.199877-1.172634,0.599631v2.491323
						C1.428482,6.496,1.620368,6.617354,1.798039,6.6816S2.16049,6.7744,2.316841,6.7744z"/>
					<path id="Path_3_" class="st0" d="M6.175875,9.879631c-0.142138,0-0.270061-0.007138-0.376664-0.028554
						s-0.213206-0.04283-0.312703-0.078524l0.22742-0.977969C5.763676,8.808862,5.820531,8.823138,5.8916,8.844554
						S6.02663,8.873108,6.090592,8.873108c0.284275,0,0.504588-0.085662,0.675153-0.256985
						C6.93631,8.4448,7.064234,8.223508,7.149517,7.959384l0.099496-0.335507L5.159592,2.348554h1.265024l0.916787,2.619816
						c0.078176,0.235569,0.156351,0.478277,0.234527,0.735261S7.732281,6.2176,7.810456,6.467446h0.042641
						C7.917059,6.2176,7.988128,5.967754,8.05209,5.710769c0.071069-0.256985,0.135031-0.506831,0.198993-0.7424l0.803077-2.619816
						h1.201062L8.329258,7.930831c-0.106603,0.306953-0.22742,0.578216-0.355344,0.813785
						C7.845991,8.987323,7.696746,9.1872,7.526181,9.358523C7.355616,9.529846,7.163731,9.658339,6.943418,9.751139
						C6.715997,9.829661,6.46015,9.879631,6.175875,9.879631z"/>
				</g>
			</g>
		</g>
	</g>
</g>
</svg>
